<?xml version="1.0" encoding="utf-8"?>
<!-- Generator: Adobe Illustrator 21.0.0, SVG Export Plug-In . SVG Version: 6.00 Build 0)  -->
<svg version="1.1" id="Layer_1" xmlns="http://www.w3.org/2000/svg" xmlns:xlink="http://www.w3.org/1999/xlink" x="0px" y="0px"
	 viewBox="0 0 238.9 62.8" style="enable-background:new 0 0 238.9 62.8;" xml:space="preserve">
<style type="text/css">
	.st0{fill:#FFFFFF;}
	.st1{fill:#006892;}
	.st2{fill:#00A1DF;}
	.st3{fill:none;stroke:#FFFFFF;stroke-width:3.3422;stroke-miterlimit:10;}
</style>
<g>
	<polygon class="st1" points="238.9,62.8 3.7,62.8 0,59.1 3.7,3.7 235.2,0 238.9,3.7 	"/>
	<rect class="st2" width="235.2" height="59.1"/>
	<g>
		<path class="st0" d="M79.9,25c-0.1-0.9-0.5-1.6-1-1.9c-0.6-0.4-1.4-0.5-2.5-0.5c-2.1,0-3.1,0.7-3.1,2.2c0,0.7,0.3,1.2,1,1.5
			s1.8,0.6,3.2,0.8c2.4,0.2,4.1,0.8,5.2,1.8s1.6,2.2,1.6,3.8c0,1.9-0.7,3.5-2,4.6c-1.4,1.1-3.2,1.7-5.5,1.7c-5.1,0-7.7-2.1-8-6.3h4
			c0.1,0.9,0.4,1.6,1.1,2s1.6,0.7,2.9,0.7c1.1,0,2-0.2,2.6-0.6c0.6-0.4,0.9-1,0.9-1.7c0-0.6-0.3-1.1-0.8-1.4
			c-0.5-0.3-1.5-0.6-3.1-0.8c-1.9-0.3-3.4-0.6-4.3-1.1c-0.9-0.4-1.6-1.1-2.1-1.8s-0.7-1.7-0.7-2.9c0-1.8,0.7-3.2,2-4.3
			c1.3-1.1,3.1-1.6,5.3-1.6c2.4,0,4.2,0.5,5.4,1.4c1.2,0.9,1.9,2.4,2.1,4.4H79.9z"/>
		<path class="st0" d="M95,29.8c0-0.8-0.2-1.5-0.5-1.9s-0.9-0.6-1.7-0.6c-1.3,0-2.1,0.6-2.2,1.7h-3.4c0.1-1.4,0.7-2.5,1.7-3.2
			s2.4-1.1,4.1-1.1c3.7,0,5.5,1.9,5.5,5.6v4.7c0,0.5,0.1,0.9,0.2,1.1c0.1,0.2,0.3,0.3,0.6,0.3l0.6-0.1v2.4c-0.7,0.2-1.4,0.3-2.1,0.3
			c-1.5,0-2.3-0.7-2.5-2.2c-0.4,0.7-0.9,1.2-1.5,1.7c-0.6,0.5-1.6,0.7-2.8,0.7c-1.4,0-2.5-0.4-3.3-1.2c-0.7-0.8-1.1-1.8-1.1-3
			c0-1.1,0.3-2,1-2.7s1.7-1.1,3.1-1.4c1.4-0.2,2.8-0.3,4.2-0.3V29.8z M95,32.7c-2,0-3.4,0.2-3.9,0.5c-0.6,0.3-0.9,0.8-0.9,1.5
			c0,0.5,0.2,0.9,0.5,1.2c0.3,0.3,0.8,0.5,1.5,0.5c0.9,0,1.6-0.3,2.1-0.9c0.5-0.6,0.7-1.4,0.7-2.4V32.7z"/>
		<path class="st0" d="M100.1,25h3.7l3.1,9.7h0.1l3.3-9.7h4l-5.4,13.6h-4L100.1,25z"/>
		<path class="st0" d="M118.9,32.8c0,1.1,0.3,1.9,0.8,2.5c0.5,0.6,1.3,0.9,2.2,0.9c1.3,0,2.1-0.5,2.6-1.4h3.6
			c-0.4,1.3-1.1,2.4-2.2,3.1c-1.1,0.7-2.5,1.1-4.2,1.1c-2,0-3.6-0.7-4.8-2c-1.2-1.3-1.8-3-1.8-5.2c0-2.2,0.6-3.9,1.8-5.3
			c1.2-1.3,2.9-2,4.9-2c2,0,3.6,0.6,4.7,1.9c1.1,1.2,1.7,3,1.7,5.2v1.2L118.9,32.8z M124.4,30.3c0-0.8-0.3-1.5-0.7-2.1
			s-1.1-0.9-2-0.9c-1.6,0-2.5,1-2.8,2.9H124.4z"/>
		<path class="st0" d="M139.2,25h3.6v1.6h0.1c1-1.3,2.3-1.9,4-1.9c1.8,0,3.2,0.6,4.1,1.8c1,1.2,1.4,3,1.4,5.3c0,2.2-0.5,3.9-1.6,5.2
			c-1.1,1.3-2.5,2-4.3,2c-1,0-1.8-0.2-2.4-0.6c-0.6-0.4-1-0.9-1.3-1.4h-0.1v7.5h-3.6V25z M145.6,35.9c0.9,0,1.6-0.3,2.2-1
			c0.6-0.7,0.8-1.7,0.8-3.1c0-2.7-1-4.1-2.9-4.1c-1,0-1.7,0.3-2.3,1c-0.5,0.7-0.8,1.7-0.8,3c0,1.3,0.3,2.3,0.8,3
			C144,35.5,144.7,35.9,145.6,35.9z"/>
		<path class="st0" d="M155.3,19.1h3.6v7.7h0.1c0.8-1.5,2.2-2.2,4-2.2c1.6,0,2.8,0.5,3.6,1.4c0.8,0.9,1.2,2.3,1.2,4.3v8.4h-3.6v-7.8
			c0-0.9-0.2-1.7-0.5-2.2c-0.3-0.6-1-0.8-1.9-0.8c-0.9,0-1.6,0.3-2.1,0.9c-0.5,0.6-0.7,1.5-0.7,2.7v7.3h-3.6V19.1z"/>
		<path class="st0" d="M177.1,39c-2.1,0-3.8-0.6-4.9-1.9c-1.2-1.3-1.7-3-1.7-5.3s0.6-4,1.7-5.3c1.2-1.3,2.8-1.9,4.9-1.9
			c2.1,0,3.8,0.6,4.9,1.9c1.1,1.3,1.7,3,1.7,5.3s-0.6,4-1.7,5.3C180.9,38.3,179.2,39,177.1,39z M177.1,27.7c-2,0-3,1.3-3,4
			c0,2.7,1,4.1,3,4.1s3-1.4,3-4.1C180.1,29.1,179.1,27.7,177.1,27.7z"/>
		<path class="st0" d="M185.2,25h2.2v-4.1h3.6V25h3.7v2.9H191v5.9c0,0.7,0.1,1.2,0.3,1.6s0.7,0.5,1.3,0.5c0.4,0,1.1-0.1,1.9-0.3v2.7
			c-1,0.3-2,0.5-3.1,0.5c-1.4,0-2.4-0.4-3.1-1.1c-0.7-0.7-1-1.9-1-3.5v-6.3h-2.2V25z"/>
		<path class="st0" d="M202.9,39c-2.1,0-3.8-0.6-4.9-1.9c-1.2-1.3-1.7-3-1.7-5.3s0.6-4,1.7-5.3c1.2-1.3,2.8-1.9,4.9-1.9
			c2.1,0,3.8,0.6,4.9,1.9c1.1,1.3,1.7,3,1.7,5.3s-0.6,4-1.7,5.3C206.6,38.3,205,39,202.9,39z M202.9,27.7c-2,0-3,1.3-3,4
			c0,2.7,1,4.1,3,4.1s3-1.4,3-4.1C205.8,29.1,204.8,27.7,202.9,27.7z"/>
	</g>
	<g>
		<polyline class="st3" points="43.6,33.6 43.6,41.9 15.2,41.9 15.2,33.6 		"/>
		<polyline class="st3" points="38,26.2 29.4,34.8 20.8,26.2 		"/>
		<line class="st3" x1="29.4" y1="32.7" x2="29.4" y2="14.3"/>
	</g>
</g>
</svg>
