<?xml version="1.0" encoding="utf-8"?>
<!-- Generator: Adobe Illustrator 21.0.0, SVG Export Plug-In . SVG Version: 6.00 Build 0)  -->
<svg version="1.1" id="Layer_1" xmlns="http://www.w3.org/2000/svg" xmlns:xlink="http://www.w3.org/1999/xlink" x="0px" y="0px"
	 viewBox="0 0 238.9 62.8" style="enable-background:new 0 0 238.9 62.8;" xml:space="preserve">
<style type="text/css">
	.st0{fill:#FFFFFF;}
	.st1{fill:#00A1DF;}
	.st2{fill:#006892;}
	.st3{fill:none;stroke:#FFFFFF;stroke-width:3.3422;stroke-miterlimit:10;}
</style>
<g>
	<polygon class="st1" points="238.9,62.8 3.7,62.8 0,59.1 3.7,3.7 235.2,0 238.9,3.7 	"/>
	<rect class="st2" width="235.2" height="59.1"/>
	<g>
		<g>
			<path class="st0" d="M56.5,19.7h8c2,0,3.6,0.5,4.8,1.6c1.1,1,1.7,2.5,1.7,4.3c0,1.1-0.2,1.9-0.5,2.6c-0.3,0.7-0.8,1.3-1.2,1.7
				s-1.2,0.8-2.1,1.2l4.5,7.6H67l-3.7-6.9h-3v6.9h-3.8V19.7z M60.3,28.5h3.1c2.4,0,3.5-0.9,3.5-2.8c0-0.9-0.3-1.6-0.9-2
				c-0.6-0.4-1.5-0.6-2.7-0.6h-3V28.5z"/>
			<path class="st0" d="M76.8,32.9c0,1.1,0.3,1.9,0.8,2.5c0.5,0.6,1.3,0.9,2.2,0.9c1.3,0,2.1-0.5,2.6-1.4H86
				c-0.4,1.3-1.1,2.4-2.2,3.1c-1.1,0.7-2.5,1.1-4.2,1.1c-2,0-3.6-0.7-4.8-2c-1.2-1.3-1.8-3-1.8-5.2c0-2.2,0.6-3.9,1.8-5.3
				c1.2-1.3,2.9-2,4.9-2c2,0,3.6,0.6,4.7,1.9c1.1,1.2,1.7,3,1.7,5.2v1.2L76.8,32.9z M82.3,30.4c0-0.8-0.3-1.5-0.7-2.1
				s-1.1-0.9-2-0.9c-1.6,0-2.5,1-2.8,2.9H82.3z"/>
			<path class="st0" d="M87.6,25.1h2.2V21h3.6v4.1H97V28h-3.7v5.9c0,0.7,0.1,1.2,0.3,1.6S94.4,36,95,36c0.4,0,1.1-0.1,1.9-0.3v2.7
				c-1,0.3-2,0.5-3.1,0.5c-1.4,0-2.4-0.4-3.1-1.1c-0.7-0.7-1-1.9-1-3.5V28h-2.2V25.1z"/>
			<path class="st0" d="M107.2,30c0-0.8-0.2-1.5-0.5-1.9s-0.9-0.6-1.7-0.6c-1.3,0-2.1,0.6-2.2,1.7h-3.4c0.1-1.4,0.7-2.5,1.7-3.2
				s2.4-1.1,4.1-1.1c3.7,0,5.5,1.9,5.5,5.6V35c0,0.5,0.1,0.9,0.2,1.1c0.1,0.2,0.3,0.3,0.6,0.3l0.6-0.1v2.4c-0.7,0.2-1.4,0.3-2.1,0.3
				c-1.5,0-2.3-0.7-2.5-2.2c-0.4,0.7-0.9,1.2-1.5,1.7c-0.6,0.5-1.6,0.7-2.8,0.7c-1.4,0-2.5-0.4-3.3-1.2c-0.7-0.8-1.1-1.8-1.1-3
				c0-1.1,0.3-2,1-2.7c0.7-0.7,1.7-1.1,3.1-1.4c1.4-0.2,2.8-0.3,4.2-0.3V30z M107.2,32.8c-2,0-3.4,0.2-3.9,0.5
				c-0.6,0.3-0.9,0.8-0.9,1.5c0,0.5,0.2,0.9,0.5,1.2c0.3,0.3,0.8,0.5,1.5,0.5c0.9,0,1.6-0.3,2.1-0.9c0.5-0.6,0.7-1.4,0.7-2.4V32.8z"
				/>
			<path class="st0" d="M114.4,19.2h3.6v11.3l4.7-5.4h4.7l-5.1,5.3l5.1,8.3H123l-3.2-5.9l-1.8,1.8v4.1h-3.6V19.2z"/>
			<path class="st0" d="M131.8,32.9c0,1.1,0.3,1.9,0.8,2.5c0.5,0.6,1.3,0.9,2.2,0.9c1.3,0,2.1-0.5,2.6-1.4h3.6
				c-0.4,1.3-1.1,2.4-2.2,3.1c-1.1,0.7-2.5,1.1-4.2,1.1c-2,0-3.6-0.7-4.8-2c-1.2-1.3-1.8-3-1.8-5.2c0-2.2,0.6-3.9,1.8-5.3
				c1.2-1.3,2.9-2,4.9-2c2,0,3.6,0.6,4.7,1.9c1.1,1.2,1.7,3,1.7,5.2v1.2L131.8,32.9z M137.3,30.4c0-0.8-0.3-1.5-0.7-2.1
				s-1.1-0.9-2-0.9c-1.6,0-2.5,1-2.8,2.9H137.3z"/>
			<path class="st0" d="M152.2,25.1h3.6v1.6h0.1c1-1.3,2.3-1.9,4-1.9c1.8,0,3.2,0.6,4.1,1.8c1,1.2,1.4,3,1.4,5.3
				c0,2.2-0.5,3.9-1.6,5.2c-1.1,1.3-2.5,2-4.3,2c-1,0-1.8-0.2-2.4-0.6c-0.6-0.4-1-0.9-1.3-1.4h-0.1v7.5h-3.6V25.1z M158.6,36
				c0.9,0,1.6-0.3,2.2-1c0.6-0.7,0.8-1.7,0.8-3.1c0-2.7-1-4.1-2.9-4.1c-1,0-1.7,0.3-2.3,1c-0.5,0.7-0.8,1.7-0.8,3
				c0,1.3,0.3,2.3,0.8,3C157,35.7,157.7,36,158.6,36z"/>
			<path class="st0" d="M168.2,19.2h3.6v7.7h0.1c0.8-1.5,2.2-2.2,4-2.2c1.6,0,2.8,0.5,3.6,1.4c0.8,0.9,1.2,2.3,1.2,4.3v8.4h-3.6V31
				c0-0.9-0.2-1.7-0.5-2.2c-0.3-0.6-1-0.8-1.9-0.8c-0.9,0-1.6,0.3-2.1,0.9c-0.5,0.6-0.7,1.5-0.7,2.7v7.3h-3.6V19.2z"/>
			<path class="st0" d="M190,39.1c-2.1,0-3.8-0.6-4.9-1.9c-1.2-1.3-1.7-3-1.7-5.3s0.6-4,1.7-5.3c1.2-1.3,2.8-1.9,4.9-1.9
				c2.1,0,3.8,0.6,4.9,1.9c1.1,1.3,1.7,3,1.7,5.3s-0.6,4-1.7,5.3C193.8,38.5,192.2,39.1,190,39.1z M190,27.9c-2,0-3,1.3-3,4
				c0,2.7,1,4.1,3,4.1s3-1.4,3-4.1C193,29.2,192,27.9,190,27.9z"/>
			<path class="st0" d="M198.1,25.1h2.2V21h3.6v4.1h3.7V28h-3.7v5.9c0,0.7,0.1,1.2,0.3,1.6s0.7,0.5,1.3,0.5c0.4,0,1.1-0.1,1.9-0.3
				v2.7c-1,0.3-2,0.5-3.1,0.5c-1.4,0-2.4-0.4-3.1-1.1c-0.7-0.7-1-1.9-1-3.5V28h-2.2V25.1z"/>
			<path class="st0" d="M215.8,39.1c-2.1,0-3.8-0.6-4.9-1.9c-1.2-1.3-1.7-3-1.7-5.3s0.6-4,1.7-5.3c1.2-1.3,2.8-1.9,4.9-1.9
				c2.1,0,3.8,0.6,4.9,1.9c1.1,1.3,1.7,3,1.7,5.3s-0.6,4-1.7,5.3C219.6,38.5,217.9,39.1,215.8,39.1z M215.8,27.9c-2,0-3,1.3-3,4
				c0,2.7,1,4.1,3,4.1s3-1.4,3-4.1C218.8,29.2,217.8,27.9,215.8,27.9z"/>
		</g>
	</g>
	<g>
		<polyline class="st3" points="25.1,38.1 16.5,29.5 25.1,21 		"/>
		<line class="st3" x1="18.6" y1="29.5" x2="42.3" y2="29.5"/>
	</g>
</g>
</svg>
