<?xml version="1.0" encoding="utf-8"?>
<!-- Generator: Adobe Illustrator 21.0.0, SVG Export Plug-In . SVG Version: 6.00 Build 0)  -->
<svg version="1.1" id="Layer_1" xmlns="http://www.w3.org/2000/svg" xmlns:xlink="http://www.w3.org/1999/xlink" x="0px" y="0px"
	 viewBox="0 0 275.5 76.6" style="enable-background:new 0 0 275.5 76.6;" xml:space="preserve">
<style type="text/css">
	.st0{fill:#FFFFFF;}
	.st1{fill:#006892;}
</style>
<g>
	<g>
		<polygon class="st1" points="275.5,76.6 5.3,76.6 0,71.4 5.3,5.3 270.2,0 275.5,5.3 		"/>
		<rect class="st0" width="270.2" height="71.4"/>
	</g>
	<g>
		<path class="st1" d="M39.1,27.4h-6.2v-4.7h17.4v4.7h-6.2V51h-5V27.4z"/>
		<path class="st1" d="M57.2,22.7h6L70.9,51h-5l-1.6-6.2h-8L54.7,51h-5.1L57.2,22.7z M60.2,28.8L60.2,28.8l-2.8,11.5h5.7L60.2,28.8z
			"/>
		<path class="st1" d="M74.4,22.7h4.9V36l7.9-13.3H93l-7.2,11.3L93,51h-5.6l-5.2-12.5l-2.9,4.3V51h-4.9V22.7z"/>
		<path class="st1" d="M96.5,22.7h14.8v4.7h-9.9v6.9h9v4.7h-9v7.3h10V51H96.5V22.7z"/>
		<path class="st1" d="M130.7,40.6V51h-5V22.7h8.6c2.7,0,4.8,0.7,6.2,2.2c1.4,1.5,2.2,3.6,2.2,6.4c0,2.9-0.8,5.1-2.3,6.8
			c-1.5,1.7-3.7,2.5-6.5,2.5H130.7z M130.7,36.2h2.8c2.7,0,4.1-1.5,4.1-4.6c0-1.4-0.3-2.5-1-3.3c-0.6-0.8-1.8-1.1-3.5-1.1h-2.4V36.2
			z"/>
		<path class="st1" d="M146.5,22.7h4.9v11.5h8.6V22.7h4.9V51H160V39h-8.6v12h-4.9V22.7z"/>
		<path class="st1" d="M169.6,36.8c0-3.8,0.4-6.7,1.1-8.7s1.9-3.5,3.3-4.5c1.5-1,3.2-1.5,5.3-1.5c2.2,0,4,0.4,5.4,1.3
			s2.5,2.3,3.2,4.3c0.7,2,1.1,5,1.1,9c0,4.9-0.8,8.6-2.4,11s-4,3.6-7.4,3.6c-2.2,0-4-0.5-5.4-1.4c-1.4-0.9-2.5-2.4-3.2-4.5
			C170,43.5,169.6,40.6,169.6,36.8z M174.7,36.8c0,3.6,0.4,6.2,1.1,7.7c0.7,1.5,1.9,2.3,3.5,2.3c1.6,0,2.8-0.8,3.5-2.3
			c0.7-1.5,1.1-4.1,1.1-7.7c0-3.7-0.4-6.2-1.1-7.7c-0.7-1.5-1.9-2.2-3.6-2.2c-1.6,0-2.8,0.8-3.5,2.3
			C175.1,30.7,174.7,33.2,174.7,36.8z"/>
		<path class="st1" d="M198,27.4h-6.2v-4.7h17.4v4.7H203V51h-5V27.4z"/>
		<path class="st1" d="M211.9,36.8c0-3.8,0.4-6.7,1.1-8.7s1.9-3.5,3.3-4.5c1.5-1,3.2-1.5,5.3-1.5c2.2,0,4,0.4,5.4,1.3
			s2.5,2.3,3.2,4.3c0.7,2,1.1,5,1.1,9c0,4.9-0.8,8.6-2.4,11s-4,3.6-7.4,3.6c-2.2,0-4-0.5-5.4-1.4c-1.4-0.9-2.5-2.4-3.2-4.5
			C212.3,43.5,211.9,40.6,211.9,36.8z M217,36.8c0,3.6,0.4,6.2,1.1,7.7c0.7,1.5,1.9,2.3,3.5,2.3c1.6,0,2.8-0.8,3.5-2.3
			c0.7-1.5,1.1-4.1,1.1-7.7c0-3.7-0.4-6.2-1.1-7.7c-0.7-1.5-1.9-2.2-3.6-2.2c-1.6,0-2.8,0.8-3.5,2.3C217.4,30.7,217,33.2,217,36.8z"
			/>
	</g>
</g>
</svg>
