<svg xmlns="http://www.w3.org/2000/svg" viewBox="0 0 172 36.13"><defs><style>.cls-1{fill:#439539;}.cls-2{fill:#231f20;}.cls-3{fill:#006892;}</style></defs><title>logo</title><g id="Layer_2" data-name="Layer 2"><g id="Layer_1-2" data-name="Layer 1"><path class="cls-1" d="M10.22,5.26a6.28,6.28,0,0,1,2.3,1.56,6.8,6.8,0,0,1,1.42,2.43,9.65,9.65,0,0,1,.49,3.15,9.59,9.59,0,0,1-.51,3.2,6.83,6.83,0,0,1-1.48,2.46,6.48,6.48,0,0,1-2.35,1.57A8.4,8.4,0,0,1,7,20.19a7,7,0,0,1-2.85-.57A6.31,6.31,0,0,1,1.93,18,7.36,7.36,0,0,1,.51,15.58,9.34,9.34,0,0,1,0,12.43,9.11,9.11,0,0,1,.53,9.25,7,7,0,0,1,2,6.82,6.77,6.77,0,0,1,4.3,5.26a7.25,7.25,0,0,1,2.85-.55,8.15,8.15,0,0,1,3.08.55M3.59,7.06a8.56,8.56,0,0,0-1.33,5.19,11.8,11.8,0,0,0,.36,3.07,7.48,7.48,0,0,0,1,2.31A4.59,4.59,0,0,0,5.19,19.1a3.9,3.9,0,0,0,2,.5,4.3,4.3,0,0,0,3.64-1.74,8.34,8.34,0,0,0,1.31-5.09,9.75,9.75,0,0,0-1.33-5.53A4.1,4.1,0,0,0,7.22,5.3,4.3,4.3,0,0,0,3.59,7.06m11.34-.24c.35-.28,2.91-2.11,3-2.11s.19.07.2.21,0,.33,0,.57V6.88c0,.19.06.29.18.29s.23-.13.47-.39a9,9,0,0,1,1-.85,7.38,7.38,0,0,1,1.44-.86,4.64,4.64,0,0,1,2-.39,5.1,5.1,0,0,1,2.32.54,5.52,5.52,0,0,1,1.86,1.52,7.7,7.7,0,0,1,1.24,2.39,10,10,0,0,1,.46,3.11,9.75,9.75,0,0,1-.53,3.32,7.43,7.43,0,0,1-1.45,2.5,6.28,6.28,0,0,1-2.16,1.57,6.57,6.57,0,0,1-2.71.56,7.4,7.4,0,0,1-2-.24,7.8,7.8,0,0,1-1.85-.79h-.18V25a1,1,0,0,0,.36.92,2,2,0,0,0,.82.31l.82.11c.24,0,.36.14.36.34s-.18.33-.55.33H14.87c-.34,0-.51-.11-.51-.33s.1-.27.29-.31a6.53,6.53,0,0,0,.66-.15,1.67,1.67,0,0,0,.65-.34,1.11,1.11,0,0,0,.29-.89V8.34A1,1,0,0,0,16,7.56a1,1,0,0,0-.51-.23L15,7.3a.2.2,0,0,1-.22-.23s0-.12.14-.25M18.55,18a2.85,2.85,0,0,0,.79.86,4,4,0,0,0,1.15.57,4.61,4.61,0,0,0,1.43.21A4.33,4.33,0,0,0,25.5,17.8a8.36,8.36,0,0,0,1.39-5.17,8.31,8.31,0,0,0-1.3-5,4,4,0,0,0-3.31-1.74,4.1,4.1,0,0,0-1.46.28,4.27,4.27,0,0,0-1.3.78A4,4,0,0,0,18.6,8.1a3.23,3.23,0,0,0-.35,1.5v7.27A2.16,2.16,0,0,0,18.55,18M39.06,6.84c.39-.22,3.09-1.91,3.24-1.91s.19,0,.22.14a1.9,1.9,0,0,1,0,.47V18.1a1.18,1.18,0,0,0,.32,1,1.74,1.74,0,0,0,.72.34l.72.13c.21,0,.32.14.32.32s0,.28-.14.3a1.9,1.9,0,0,1-.43,0H38.85a1.72,1.72,0,0,1-.47,0c-.12,0-.17-.13-.17-.28s.12-.28.36-.32l.77-.13a1.89,1.89,0,0,0,.78-.35,1.11,1.11,0,0,0,.36-.94V8.88c0-.83-.39-1.24-1.17-1.24a1.82,1.82,0,0,1-.49-.05c-.13,0-.18-.13-.19-.28s.17-.33.44-.47M42.36.55a1.63,1.63,0,0,1,.41,1.11,1.55,1.55,0,0,1-.39,1.06,1.23,1.23,0,0,1-1,.46,1.21,1.21,0,0,1-.93-.44,1.54,1.54,0,0,1-.39-1.07A1.66,1.66,0,0,1,40.49.55a1.19,1.19,0,0,1,.93-.47,1.26,1.26,0,0,1,.95.47M54.82,5.26a6.27,6.27,0,0,1,2.29,1.56,6.74,6.74,0,0,1,1.42,2.43A9.51,9.51,0,0,1,59,12.4a9.55,9.55,0,0,1-.51,3.2A6.86,6.86,0,0,1,57,18.06a6.44,6.44,0,0,1-2.35,1.57,8.38,8.38,0,0,1-3.14.56,6.92,6.92,0,0,1-2.84-.57A6.38,6.38,0,0,1,46.52,18a7.37,7.37,0,0,1-1.42-2.45,9.37,9.37,0,0,1-.51-3.15,9.17,9.17,0,0,1,.53-3.18,7,7,0,0,1,1.5-2.43,6.72,6.72,0,0,1,2.28-1.56,7.25,7.25,0,0,1,2.84-.55,8.16,8.16,0,0,1,3.08.55m-6.64,1.8a8.56,8.56,0,0,0-1.33,5.19,11.64,11.64,0,0,0,.36,3.07,7.43,7.43,0,0,0,1,2.31,4.67,4.67,0,0,0,1.55,1.46,3.9,3.9,0,0,0,2,.5,4.31,4.31,0,0,0,3.65-1.74,8.36,8.36,0,0,0,1.31-5.09,9.73,9.73,0,0,0-1.33-5.53A4.1,4.1,0,0,0,51.81,5.3a4.3,4.3,0,0,0-3.63,1.77m11.6-.34c.39-.24,2.82-2,2.95-2s.2.07.21.22,0,.35,0,.6v1.6c0,.25.05.37.15.37s.26-.16.48-.49a5,5,0,0,1,1.05-1.07A6,6,0,0,1,66.18,5a4.67,4.67,0,0,1,1.7-.31A4.47,4.47,0,0,1,71.3,6.1,5.31,5.31,0,0,1,72.6,9.87V18a1.22,1.22,0,0,0,.31,1,1.58,1.58,0,0,0,.69.34l.69.13c.21,0,.3.14.3.32s0,.26-.13.29a1.34,1.34,0,0,1-.44.05H69.16a2.31,2.31,0,0,1-.5,0c-.1,0-.15-.12-.15-.3s.1-.29.31-.32.43-.08.69-.15a1.81,1.81,0,0,0,.69-.36,1.16,1.16,0,0,0,.3-.93V11.37a8.1,8.1,0,0,0-.76-4A2.93,2.93,0,0,0,67,6.07a3.27,3.27,0,0,0-3,1.47A8.5,8.5,0,0,0,63,12v6a1.21,1.21,0,0,0,.31,1,1.55,1.55,0,0,0,.69.34l.69.13c.21,0,.31.14.31.32s0,.26-.13.29a1.35,1.35,0,0,1-.44.05H59.53a1.32,1.32,0,0,1-.44-.05c-.09,0-.14-.13-.14-.29s.1-.29.31-.32.43-.08.69-.15a1.83,1.83,0,0,0,.69-.36,1.17,1.17,0,0,0,.31-.93V8.34c0-.34-.08-.56-.25-.66a1.31,1.31,0,0,0-.54-.19l-.51-.07c-.15,0-.24-.1-.23-.24s.07-.28.37-.46m22.59-1.9a2.48,2.48,0,0,1,.95.34,1,1,0,0,1,.38.5,2.32,2.32,0,0,1,.07.6V7.6c0,.43-.11.65-.33.65s-.34-.13-.36-.41a2.77,2.77,0,0,0-.51-1.12A3.11,3.11,0,0,0,79.95,5.3,2.54,2.54,0,0,0,78.16,6a2.21,2.21,0,0,0-.73,1.73,2.2,2.2,0,0,0,.73,1.77,9.16,9.16,0,0,0,2.18,1.28c.64.28,1.2.55,1.72.81a6.26,6.26,0,0,1,1.31.87,3.58,3.58,0,0,1,.86,1.15,4,4,0,0,1,.31,1.67,4.73,4.73,0,0,1-1.42,3.63,5.66,5.66,0,0,1-4,1.33,8.14,8.14,0,0,1-1.44-.13,5.75,5.75,0,0,1-1.27-.37,3.62,3.62,0,0,1-.93-.55.89.89,0,0,1-.36-.7c0-.17,0-.49,0-1s0-1.08,0-1.84c0-.37.14-.55.4-.55s.36.17.42.5.2.88.42,1.64a4.06,4.06,0,0,0,1,1.77,2.83,2.83,0,0,0,2,.6,3.41,3.41,0,0,0,2.46-.89,3.12,3.12,0,0,0,.93-2.35,2.61,2.61,0,0,0-.8-2,8.57,8.57,0,0,0-2.44-1.41,10.63,10.63,0,0,1-3-1.72,3,3,0,0,1-1-2.3,3.84,3.84,0,0,1,1.31-3A5.33,5.33,0,0,1,80.6,4.71a10.15,10.15,0,0,1,1.77.12M33.11,4.4a.77.77,0,0,0,.09.45c.06.08.2.11.43.11h2.75c.23,0,.36,0,.41.08a.57.57,0,0,1,.07.35v.13a.77.77,0,0,1-.09.43.46.46,0,0,1-.39.13H33.59c-.22,0-.37,0-.43.12a.74.74,0,0,0-.09.45v9.67c0,1.68.6,2.52,1.79,2.52a2,2,0,0,0,.89-.2,5.37,5.37,0,0,0,.73-.42,5.1,5.1,0,0,0,.54-.41.64.64,0,0,1,.34-.2c.09,0,.15.09.15.27a1.18,1.18,0,0,1-.28.55,3.81,3.81,0,0,1-.78.76,6.06,6.06,0,0,1-1.15.68,3.25,3.25,0,0,1-1.36.3,2.7,2.7,0,0,1-2.25-1,4.83,4.83,0,0,1-.8-3V14.57L31,6.65a.77.77,0,0,0-.09-.45c-.06-.08-.2-.12-.43-.12h-.56q-.56,0-.56-.3c0-.18.29-.38.58-.65s.68-.7,1.23-1.28.62-.7,1.25-1.46c.38-.46.44-.64.56-.62s.15.13.15.4V4.4Z"/><path class="cls-2" d="M130.26,30.57c-.2-.63-.53-1.39-1.44-1.39a1.07,1.07,0,0,0-1.11,1.14c0,.61.43,1,1.27,1.39l.28.13a2.28,2.28,0,0,1,1.63,2.09,2.25,2.25,0,0,1-2.48,2.21,3.35,3.35,0,0,1-1.08-.19c-.3-.1-.5-.18-.63-.23-.09-.28-.22-1-.33-1.68l.33-.11c.22.57.8,1.77,1.92,1.77a1.14,1.14,0,0,0,1.14-1.23c0-.61-.29-1-1.15-1.46l-.35-.17c-.72-.37-1.63-.95-1.63-2a2.1,2.1,0,0,1,2.31-2.07,3.2,3.2,0,0,1,1,.15c.17.06.32.09.46.14,0,.38.11.86.22,1.46Z"/><path class="cls-2" d="M137.75,30.79a1.88,1.88,0,0,0-2-1.61c-1.78,0-2.58,1.49-2.58,3.09,0,2,1,3.42,2.58,3.42,1.17,0,1.71-.61,2.28-1.76l.31.06a16.37,16.37,0,0,1-.54,1.8,8.78,8.78,0,0,1-2,.33c-2.85,0-4-1.86-4-3.57,0-2.28,1.76-3.81,4.19-3.81a7.91,7.91,0,0,1,2,.28c.09.61.13,1.09.19,1.71Z"/><path class="cls-2" d="M141.86,28.91v.31c-.8.06-.89.15-.89,1.32V32h3.3V30.54c0-1.17-.09-1.26-.91-1.32v-.31h3.08v.31c-.87.06-1,.15-1,1.32v3.8c0,1.17.09,1.26.93,1.32V36h-3.15v-.31c.91-.06,1-.15,1-1.32V32.49H141v1.85c0,1.17.09,1.26.93,1.32V36h-3.1v-.31c.87-.06,1-.15,1-1.32v-3.8c0-1.17-.09-1.26-1-1.32v-.31Z"/><path class="cls-2" d="M152.4,29l1.89,5.17h0c.4-1.35.92-3.37,1.1-4.06s.09-.82-.37-.86l-.38,0v-.31h2.5v.31c-.71.06-.79.13-1.14,1.11-.16.46-.93,2.71-1.83,5.73h-.48L151.86,31h0l-1.69,5.08h-.48l-1.79-5.78c-.29-.93-.49-1-1.06-1.06v-.31h2.93v.31l-.34,0c-.39.06-.53.13-.36.69l1.26,4.24h0L152,29Z"/><path class="cls-2" d="M159.45,28.88l-2.2,5.68c-.38,1-.5,1-1.17,1.11V36h2.41v-.31l-.3,0c-.48-.05-.57-.19-.37-.77s.35-1.06.49-1.39h2c.23.57.49,1.24.6,1.56s.11.52-.3.59l-.31,0V36h2.86v-.31c-.63-.06-.78-.14-1.15-1.11s-.89-2.43-1.38-3.76l-.73-2Zm-.18,1.7h0l.85,2.39h-1.73Z"/><path class="cls-2" d="M166,32.38c1.11,0,1.91.52,1.91,1.63a1.37,1.37,0,0,1-1.45,1.52c-.69,0-.83-.19-.83-1.22V32.38Zm-2.43-3.47v.31c.78.06.87.15.87,1.32v3.8c0,1.17-.09,1.26-.93,1.32V36h2.7a4.24,4.24,0,0,0,2.08-.44,1.81,1.81,0,0,0,1-1.64c0-1.09-.85-1.68-2-1.82v0a1.74,1.74,0,0,0,1.54-1.55,1.39,1.39,0,0,0-.61-1.24,2.89,2.89,0,0,0-1.67-.36Zm2.06,1c0-.26,0-.44.09-.49a1.38,1.38,0,0,1,.5-.05,1.24,1.24,0,0,1,1.37,1.33c0,.91-.59,1.34-1.52,1.34h-.43Z"/><polygon class="cls-3" points="92.03 10.2 84.78 20.08 90.31 20.08 94.66 13.9 98.93 20.08 104.51 20.08 97.29 10.04 104.59 0 98.9 0 94.61 6.39 90.26 0.05 84.73 0.05 92.03 10.2"/><path class="cls-3" d="M170.43,18.18h.3c.16,0,.34,0,.34.24s-.2.26-.4.26h-.24Zm-.23-.19v1.53h.23v-.66h.25l.42.66h.25l-.44-.67a.39.39,0,0,0,.4-.42c0-.29-.17-.44-.53-.44Zm-.57.77a1.07,1.07,0,1,1,1.07,1.12,1.08,1.08,0,0,1-1.07-1.12m-.23,0a1.31,1.31,0,1,0,1.31-1.31,1.3,1.3,0,0,0-1.31,1.31"/><path class="cls-3" d="M112.39,4.66H105.6V20.09h3.67V14.88h2.87c3.61,0,5.68-1.89,5.68-5.2,0-3.05-2.13-5-5.43-5m-3.12,3.59h3c1.18,0,1.77.51,1.77,1.5s-.55,1.55-1.73,1.55h-3.06Z"/><path class="cls-3" d="M131.42,9.69c0-3.05-2.13-5-5.43-5h-6.9V20.09h3.72V14.8h2l2.63,5.3h4.2l-2.91-5.89a4.51,4.51,0,0,0,2.68-4.51m-8.6-1.44h3.11c1.2,0,1.73.47,1.73,1.5s-.55,1.55-1.73,1.55h-3.11Z"/><polygon class="cls-3" points="136.82 14.16 141.03 14.16 141.03 10.57 136.82 10.57 136.82 8.27 143.57 8.27 143.57 4.66 133.14 4.66 133.14 20.09 143.88 20.09 143.88 16.48 136.82 16.48 136.82 14.16"/><path class="cls-3" d="M151.61,10.44c-2.42-.57-2.64-.81-2.64-1.38s.62-.94,1.71-.94a4.06,4.06,0,0,1,3,1.38l.26.26,2.62-2.54L156.33,7a7.34,7.34,0,0,0-5.55-2.39c-3.26,0-5.54,1.9-5.54,4.61,0,3.29,2.38,4.12,4.82,4.69,2.81.64,2.94,1,2.94,1.61s-.25,1.21-2.16,1.21a4.33,4.33,0,0,1-3.43-1.53l-.24-.28-2.61,2.33.18.26a7.05,7.05,0,0,0,5.94,2.79c5.28,0,6.07-3.13,6.07-5,0-3.63-3.21-4.39-5.13-4.84"/><path class="cls-3" d="M164.53,10.44c-2.43-.57-2.65-.82-2.65-1.38s.62-.94,1.71-.94a4.06,4.06,0,0,1,3,1.38l.25.26,2.62-2.54L169.25,7a7.35,7.35,0,0,0-5.55-2.39c-3.27,0-5.55,1.9-5.55,4.61,0,3.29,2.38,4.12,4.82,4.69,2.81.64,2.95,1,2.95,1.61s-.26,1.21-2.16,1.21a4.34,4.34,0,0,1-3.43-1.53l-.24-.28-2.61,2.33.18.26a7.05,7.05,0,0,0,5.94,2.79c5.27,0,6.06-3.13,6.06-5,0-3.63-3.22-4.39-5.13-4.84"/><path d="M123.37,33.78a2.72,2.72,0,0,1-2.66,2.33c-.82,0-1.48-.52-1.48-.83s.06-.79.33-.79c.46,0,.89,1,1.79,1a1,1,0,0,0,1.09-1c0-.81-1.4-1.58-1.4-2.86a3.27,3.27,0,0,1,2.76-3c.67,0,.95.39.95.72a.63.63,0,0,1-.59.61c-.52,0-.84-.39-1.36-.39s-.89.38-.89,1c0,1,1.47,1.83,1.47,3.14"/><path d="M96.85,34.14c-.74.87-1.77,2-2.79,2-.41,0-.52-.2-.52-.52,0-.91,1.85-4,1.85-5.15,0-.37-.13-.55-.52-.55-1.15,0-3.52,3-4.37,5.84-.06.19-.2.24-.63.24s-.52-.06-.52-.22S91,31.34,91.81,29.1A28.29,28.29,0,0,0,93,25.35c0-.21-.11-.33-.47-.39l-.49,0a0,0,0,0,1,0,0V24.6a0,0,0,0,1,0,0h2.18c.18,0,.24,0,.24.17S94,26.37,93,29.12c-.74,1.93-1.13,2.65-1,2.65s2-3.09,3.58-3.09c.63,0,1,.41,1,1.31,0,1.46-1.48,4.37-1.48,4.71,0,.15.08.2.26.2s.91-.68,1.22-1a0,0,0,0,1,.06,0l.17.2a0,0,0,0,1,0,.06"/><path d="M89.06,34.43a3.85,3.85,0,0,1-2.87,1.69,2,2,0,0,1-2-2.07c-.14-2.91,3.26-5.37,5.23-5.37a1.23,1.23,0,0,1,1.38,1.11.49.49,0,0,1-.46.52c-.59,0-.78-1.18-1.56-1.18-1.13,0-3.39,3.2-3.31,4.93a1.28,1.28,0,0,0,1.28,1.33,2.79,2.79,0,0,0,1.61-.74c.22-.16.46-.4.5-.43a0,0,0,0,1,.05,0l.15.17a0,0,0,0,1,0,0"/><path d="M105.18,30.72l.14.16a0,0,0,0,0,.06,0l.07-.08c.26-.31.85-1.09,1.17-1.09s.26.17.26.44c0,1.06-1.74,5.32-1.74,5.61s.06.21.17.21h.65c.13,0,.17-.08.26-.28,0,0,.32-.76.5-1.13,1.34-2.73,2-4,2.54-4.51,1.14-1.11,1,0,1.54,0,.37,0,.6-.38.6-.81a.58.58,0,0,0-.61-.63c-1.06,0-1.78,1-3.09,3.25-.11.18-.17.3-.22.3s-.09,0-.09-.13.61-2.39.61-2.82-.19-.54-.52-.54c-.64,0-1.9,1.37-2.29,2a0,0,0,0,0,0,0"/><path d="M99,35.08c-.33,0-.54-.15-.54-.74,0-2,1.7-5.15,3.41-5.15a.86.86,0,0,1,.89,1c0,.89-2.34,4.93-3.76,4.93m5.26-6.25-.4-.25s-.11-.07-.16-.05c-.21.07-.24.42-.49.42s-.52-.13-1-.13c-3.28,0-4.95,4.41-4.95,5.87,0,1,.52,1.43,1.11,1.43.74,0,1.62-.39,2.77-2.07.3-.42.31-.52.38-.52s.09.05.09.13a6.86,6.86,0,0,0-.5,1.79c0,.47.18.67.55.67.93,0,2-1.38,2.43-2a0,0,0,0,0,0-.05l-.17-.21a0,0,0,0,0-.06,0c-.36.37-1,1.24-1.3,1.24-.15,0-.22-.06-.22-.31,0-.61,2-5.45,2-5.79a.18.18,0,0,0-.09-.18"/><path d="M116.3,31.3c.22-.43,1.37-2.26,2.35-2.26a.67.67,0,0,1,.65.7c0,1-1.28,1.54-3,1.56m2.47,3.08-.15-.17a0,0,0,0,0-.05,0,4,4,0,0,1-2.08,1A1.16,1.16,0,0,1,115.27,34a4.13,4.13,0,0,1,.8-2.26c.24,0,.43,0,.83,0,1.13,0,3.45-.5,3.45-1.91a1.28,1.28,0,0,0-1.45-1.16c-2,0-5,2.82-5,5.47a1.84,1.84,0,0,0,1.91,2,4.62,4.62,0,0,0,3-1.69s0,0,0,0"/><path d="M113.32,34.16c-.6.76-1.55,2-2.4,2-.59,0-.89-.33-.86-1a47.94,47.94,0,0,1,2.12-6,28.08,28.08,0,0,0,1.37-3.76c0-.2-.1-.33-.45-.38-.15,0-.41,0-.49,0a0,0,0,0,1,0,0l0-.29a0,0,0,0,1,0,0h2.18c.19,0,.24,0,.23.17s-.63,1.63-1.69,4.42a47.49,47.49,0,0,0-1.92,5.61c0,.2.06.28.24.28s.7-.41,1.38-1.16a0,0,0,0,1,.06,0l.18.23a0,0,0,0,1,0,.05"/><path d="M78.75,24.61h1.33a2.53,2.53,0,0,1,.7.07.73.73,0,0,1,.4.32,1.13,1.13,0,0,1,.16.62.79.79,0,0,1-.55.84.92.92,0,0,1,.66,1,1.1,1.1,0,0,1-.18.64.86.86,0,0,1-.44.35,2.49,2.49,0,0,1-.75.09H78.75Zm.82,1.57h.28q.41,0,.52-.15a.56.56,0,0,0,.11-.34.5.5,0,0,0-.11-.31.57.57,0,0,0-.46-.14h-.34Zm0,1.65H80q.59,0,.59-.51a.48.48,0,0,0-.15-.4A.71.71,0,0,0,80,26.8h-.42Z"/><path d="M81.49,24.61h.94L83,26l.59-1.42h.83l-1.08,2.24v1.64h-.85V26.85Z"/></g></g></svg>